<svg width="36" height="36" viewBox="0 0 36 36" fill="none" xmlns="http://www.w3.org/2000/svg">
  <path d="M2.8129 9.04774C2.8129 6.32247 5.09492 4.10528 7.89986 4.10528H27.7406C30.5457 4.10528 32.8276 6.32247 32.8276 9.04774V28.325C32.8276 31.0502 30.5457 33.2674 27.7406 33.2674H7.89986C5.09492 33.2674 2.8129 31.0502 2.8129 28.325V9.04774ZM7.89986 36H27.7406C32.0967 36 35.6406 32.5573 35.6406 28.325V9.04774C35.6406 4.81546 32.0967 1.3723 27.7406 1.3723H7.89986C3.54383 1.3723 0 4.81546 0 9.04774V28.325C0 32.5573 3.54383 36 7.89986 36Z" fill="#EEEEF0"/>
</svg>
